<svg xmlns="http://www.w3.org/2000/svg" viewBox="0 0 512 512">
  <!-- Background -->
  <rect width="512" height="512" rx="96" fill="#111111"/>
  <!-- Calendar body -->
  <rect x="96" y="156" width="320" height="288" rx="40" fill="#242424" stroke="#0D9488" stroke-width="8"/>
  <!-- Calendar header bar -->
  <rect x="96" y="156" width="320" height="88" rx="40" fill="#0D9488"/>
  <rect x="96" y="200" width="320" height="44" fill="#0D9488"/>
  <!-- Binding pegs -->
  <rect x="168" y="112" width="24" height="72" rx="12" fill="#0D9488"/>
  <rect x="320" y="112" width="24" height="72" rx="12" fill="#0D9488"/>
  <!-- Row 1 grid cells -->
  <rect x="116" y="284" width="56" height="56" rx="10" fill="#333333"/>
  <rect x="188" y="284" width="56" height="56" rx="10" fill="#333333"/>
  <rect x="260" y="284" width="56" height="56" rx="10" fill="#0D9488"/>
  <rect x="332" y="284" width="56" height="56" rx="10" fill="#333333"/>
  <!-- Row 2 grid cells -->
  <rect x="116" y="356" width="56" height="56" rx="10" fill="#333333"/>
  <rect x="188" y="356" width="56" height="56" rx="10" fill="#2D1515" stroke="#5C2020" stroke-width="6"/>
  <rect x="260" y="356" width="56" height="56" rx="10" fill="#333333"/>
  <rect x="332" y="356" width="56" height="56" rx="10" fill="#333333"/>
</svg>
